#!OML:ASF F:\VICON\USERDATA\INSTALL\rory3\rory3.ASF
:FULLY-SPECIFIED
:DEGREES
1329
root 3.70119 17.7649 -6.97622 7.07606 -8.1528 1.27636
lowerback 7.42043 0.890189 -0.465293
upperback 2.70583 1.15813 0.787524
thorax -1.39237 0.570749 0.973391
lowerneck -22.4177 -0.0544793 -10.2329
upperneck 14.6046 4.22576 -5.42236
head 8.19935 0.801991 0.348432
rclavicle -2.08724e-015 3.97569e-015
rhumerus -29.7004 -19.5274 -65.4093
rradius 27.0369
rwrist 18.794
rhand -23.7122 -6.32168
rfingers 7.12502
rthumb 2.75528 -36.2836
lclavicle -2.08724e-015 3.97569e-015
lhumerus -30.6119 7.83628 74.5711
lradius 45.5382
lwrist 2.1199
lhand -14.8102 28.1723
lfingers 7.12502
lthumb 11.3478 57.8453
rfemur -8.69066 -4.8424 19.9289
rtibia 29.033
rfoot -30.3594 -18.988
rtoes -3.9529
lfemur -24.7009 -1.61185 -15.0985
ltibia 23.2736
lfoot -3.65719 5.52785
ltoes -13.5753
1330
root 3.73693 17.7667 -6.93254 6.99722 -8.10361 1.22065
lowerback 7.20977 0.963243 -0.569685
upperback 2.68499 1.24883 0.793864
thorax -1.30134 0.615512 1.03402
lowerneck -22.1522 0.0179843 -10.1704
upperneck 15.0385 4.34621 -5.61139
head 8.30989 0.819944 0.291773
rclavicle -1.33186e-014 -2.06736e-014
rhumerus -28.2933 -18.6474 -66.046
rradius 27.9602
rwrist 17.0179
rhand -24.6255 -4.98735
rfingers 7.12502
rthumb 1.87322 -34.9589
lclavicle -1.33186e-014 -2.06736e-014
lhumerus -29.4485 7.65746 74.8569
lradius 46.2805
lwrist 3.35882
lhand -15.0308 28.0302
lfingers 7.12502
lthumb 11.135 57.7148
rfemur -8.38783 -4.80118 19.8279
rtibia 28.8901
rfoot -30.3356 -19.0703
rtoes -4.6112
lfemur -24.6598 -1.25689 -15.3207
ltibia 23.57
lfoot -3.74725 4.97123
ltoes -13.9074
1331
root 3.76994 17.7643 -6.90306 6.84102 -7.94654 1.18737
lowerback 7.41825 1.0468 -0.736577
upperback 2.5893 1.34767 0.77979
thorax -1.52103 0.665712 1.10026
lowerneck -22.0257 0.0890643 -9.98585
upperneck 15.6026 4.46686 -5.82708
head 8.49209 0.831029 0.207731
rclavicle -5.1684e-015 2.94201e-014
rhumerus -27.0038 -17.8895 -66.639
rradius 28.9572
rwrist 15.7211
rhand -25.4728 -4.51021
rfingers 7.12502
rthumb 1.05497 -34.4873
lclavicle -5.1684e-015 2.94201e-014
lhumerus -28.2192 7.39519 75.1361
lradius 46.88
lwrist 4.63731
lhand -14.8049 28.2142
lfingers 7.12502
lthumb 11.3529 57.8869
rfemur -8.06643 -4.58781 19.7825
rtibia 28.7687
rfoot -30.5886 -19.3033
rtoes -4.41246
lfemur -24.6425 -1.05462 -15.5165
ltibia 23.8948
lfoot -3.77642 4.55011
ltoes -14.0876
1332
root 3.80434 17.7606 -6.87258 6.68167 -7.74496 1.1638
lowerback 7.61963 1.11266 -0.892402
upperback 2.46918 1.42311 0.771275
thorax -1.76176 0.704907 1.16725
lowerneck -21.7931 0.17203 -9.94062
upperneck 16.1596 4.59915 -5.87886
head 8.64608 0.86005 0.201767
rclavicle 7.95139e-016 -5.56597e-015
rhumerus -25.7959 -16.9623 -67.1863
rradius 29.9712
rwrist 14.3489
rhand -26.2106 -4.77301
rfingers 7.12502
rthumb 0.34238 -34.7525
lclavicle 7.95139e-016 -5.56597e-015
lhumerus -27.0884 7.13734 75.4275
lradius 47.4807
lwrist 5.92827
lhand -14.6157 28.476
lfingers 7.12502
lthumb 11.5354 58.1385
rfemur -7.74883 -4.46652 19.7213
rtibia 28.6926
rfoot -30.7777 -19.5734
rtoes -4.36582
lfemur -24.6004 -0.959871 -15.7049
ltibia 24.197
lfoot -3.78168 4.19552
ltoes -13.8157
1333
root 3.84121 17.765 -6.81614 6.61844 -7.60493 1.21457
lowerback 7.23576 1.12815 -1.03911
upperback 2.44521 1.43583 0.735733
thorax -1.57664 0.710622 1.21885
lowerneck -21.5282 0.256688 -9.97774
upperneck 16.6225 4.73203 -5.86596
head 8.75833 0.897787 0.230174
rclavicle -3.23025e-014 6.75868e-015
rhumerus -24.4637 -15.8241 -67.7994
rradius 30.9565
rwrist 12.7402
rhand -26.7932 -4.86695
rfingers 7.12502
rthumb -0.220397 -34.8466
lclavicle -3.23025e-014 6.75868e-015
lhumerus -25.9969 7.04928 75.7236
lradius 48.0289
lwrist 7.12382
lhand -14.5673 28.5491
lfingers 7.12502
lthumb 11.582 58.2091
rfemur -7.44475 -4.54335 19.4847
rtibia 28.6893
rfoot -30.88 -19.5878
rtoes -4.6161
lfemur -24.466 -0.83195 -16.0069
ltibia 24.4263
lfoot -3.99794 3.78871
ltoes -13.3239
1334
root 3.87911 17.7694 -6.7584 6.60802 -7.46415 1.25327
lowerback 6.75661 1.1487 -1.12889
upperback 2.48084 1.46059 0.662638
thorax -1.27522 0.721256 1.2017
lowerneck -21.6003 0.299756 -9.91561
upperneck 17.2697 4.85603 -5.90648
head 8.99811 0.911888 0.225452
rclavicle -4.17448e-015 -4.77083e-015
rhumerus -23.0683 -14.8817 -68.455
rradius 32.0304
rwrist 11.4111
rhand -27.2508 -5.35351
rfingers 7.12502
rthumb -0.662314 -35.3322
lclavicle -4.17448e-015 -4.77083e-015
lhumerus -24.7208 7.09978 76.0453
lradius 48.4244
lwrist 8.03722
lhand -14.4596 28.8799
lfingers 7.12502
lthumb 11.6859 58.534
rfemur -7.23956 -4.679 19.2498
rtibia 28.7743
rfoot -31.0397 -19.4647
rtoes -4.21062
lfemur -24.3648 -0.715369 -16.2783
ltibia 24.5918
lfoot -4.23038 3.42618
ltoes -12.812
1335
root 3.91585 17.7688 -6.71109 6.59064 -7.19312 1.40643
lowerback 6.47847 1.14221 -1.34717
upperback 2.4504 1.44035 0.567166
thorax -1.15432 0.710393 1.23265
lowerneck -21.6725 0.369419 -9.86433
upperneck 17.9997 5.0239 -5.92253
head 9.26717 0.942867 0.237205
rclavicle 4.67144e-015 -5.56597e-015
rhumerus -21.8063 -14.0843 -69.0536
rradius 33.1841
rwrist 10.3619
rhand -27.6856 -6.09385
rfingers 7.12502
rthumb -1.08228 -36.0709
lclavicle 4.67144e-015 -5.56597e-015
lhumerus -23.5221 7.09316 76.3746
lradius 48.79
lwrist 9.09937
lhand -14.2487 29.2633
lfingers 7.12502
lthumb 11.8893 58.9058
rfemur -7.11834 -4.81853 18.9414
rtibia 28.9662
rfoot -31.1818 -19.3932
rtoes -3.78594
lfemur -24.3364 -0.810665 -16.6076
ltibia 24.7077
lfoot -4.3369 3.21222
ltoes -12.4379
1336
root 3.95346 17.7637 -6.66761 6.48121 -6.90521 1.61433
lowerback 6.37215 1.0789 -1.63175
upperback 2.39781 1.33933 0.476972
thorax -1.15024 0.659819 1.30852
lowerneck -21.5767 0.512926 -9.83898
upperneck 18.5783 5.26382 -5.94357
head 9.45301 1.0181 0.26052
rclavicle 1.98785e-016 -1.03368e-014
rhumerus -20.5823 -13.3705 -69.6406
rradius 34.3617
rwrist 9.584
rhand -28.0588 -5.79484
rfingers 7.12502
rthumb -1.44267 -35.7697
lclavicle 1.98785e-016 -1.03368e-014
lhumerus -22.5262 7.1129 76.6852
lradius 49.1574
lwrist 10.4308
lhand -14.0015 29.7217
lfingers 7.12502
lthumb 12.1277 59.3502
rfemur -6.96062 -4.94417 18.5596
rtibia 29.2648
rfoot -31.2527 -19.311
rtoes -3.87978
lfemur -24.2355 -0.897811 -16.9875
ltibia 24.8256
lfoot -4.37066 2.89269
ltoes -11.9995
1337
root 3.98748 17.7566 -6.62722 6.31185 -6.5758 1.66302
lowerback 6.39194 1.00744 -1.81143
upperback 2.34658 1.2327 0.447169
thorax -1.21312 0.607211 1.38575
lowerneck -21.4307 0.624011 -9.83404
upperneck 19.1407 5.45668 -5.95841
head 9.6255 1.0725 0.282454
rclavicle 2.88238e-015 -3.97569e-016
rhumerus -19.4392 -12.7578 -70.2127
rradius 35.6449
rwrist 8.99777
rhand -28.4846 -4.56271
rfingers 7.12502
rthumb -1.85398 -34.5344
lclavicle 2.88238e-015 -3.97569e-016
lhumerus -21.513 7.01998 77.0482
lradius 49.384
lwrist 11.959
lhand -13.8359 30.6844
lfingers 7.12502
lthumb 12.2873 60.3034
rfemur -6.78445 -4.94552 18.3851
rtibia 29.66
rfoot -31.4056 -19.4135
rtoes -3.84638
lfemur -24.1038 -0.748192 -17.2289
ltibia 24.9519
lfoot -4.3447 2.2456
ltoes -11.4186
1338
root 4.02013 17.7535 -6.58124 6.17797 -6.27957 1.55856
lowerback 6.3182 0.958602 -1.84065
upperback 2.28478 1.16754 0.454665
thorax -1.23397 0.575425 1.41528
lowerneck -21.2098 0.739055 -9.79194
upperneck 19.6476 5.64471 -6.04242
head 9.76946 1.12422 0.273181
rclavicle 2.75317e-014 4.77083e-015
rhumerus -18.4022 -12.1844 -70.7695
rradius 36.9513
rwrist 8.4079
rhand -28.6626 -3.71918
rfingers 7.12502
rthumb -2.02582 -33.6893
lclavicle 2.75317e-014 4.77083e-015
lhumerus -20.5645 6.69 77.4826
lradius 49.5588
lwrist 13.6849
lhand -14.2971 31.3487
lfingers 7.12502
lthumb 11.8426 60.9938
rfemur -6.65529 -5.02424 18.3665
rtibia 30.1196
rfoot -31.4321 -19.5278
rtoes -3.93016
lfemur -23.9738 -0.521261 -17.3145
ltibia 25.122
lfoot -4.48091 1.63531
ltoes -11.2626
1339
root 4.05544 17.7528 -6.53379 6.05572 -6.0134 1.53737
lowerback 6.13139 0.894112 -1.92023
upperback 2.30193 1.08122 0.458279
thorax -1.11062 0.530929 1.47291
lowerneck -21.208 0.834023 -9.80416
upperneck 20.1833 5.86342 -6.14558
head 9.96464 1.17546 0.271432
rclavicle 4.37326e-015 1.70955e-014
rhumerus -17.0928 -11.8767 -71.3738
rradius 37.9862
rwrist 8.10673
rhand -28.8473 -3.35993
rfingers 7.12502
rthumb -2.2042 -33.3283
lclavicle 4.37326e-015 1.70955e-014
lhumerus -19.5436 6.38285 77.9827
lradius 49.674
lwrist 15.4065
lhand -15.1716 31.7123
lfingers 7.12502
lthumb 10.9992 61.4041
rfemur -6.60986 -5.17146 18.2256
rtibia 30.6414
rfoot -31.0883 -19.852
rtoes -5.81314
lfemur -23.8224 -0.326329 -17.4901
ltibia 25.3074
lfoot -4.72546 1.13196
ltoes -11.7267
